
        <svg xmlns="http://www.w3.org/2000/svg" xmlns:xlink="http://www.w3.org/1999/xlink" version="1.1" width="3160.377780517174" 
        height="768.4406714130939" viewBox="-32.07555610343476 0 3160.377780517174 768.4406714130939">
			
			<g transform="scale(8.01888902585869) translate(10, 10)">
				<defs id="SvgjsDefs3133"><linearGradient id="SvgjsLinearGradient3138"><stop id="SvgjsStop3139" stop-color="#7f00ff" offset="0"></stop><stop id="SvgjsStop3140" stop-color="#e100ff" offset="1"></stop></linearGradient><linearGradient id="SvgjsLinearGradient3141"><stop id="SvgjsStop3142" stop-color="#7f00ff" offset="0"></stop><stop id="SvgjsStop3143" stop-color="#e100ff" offset="1"></stop></linearGradient></defs><g id="SvgjsG3134" featureKey="HKaMnE-0" transform="matrix(1.1110505121945369,0,0,1.1110505121945369,-9.555045413016662,-2.582988181860049)" fill="url(#SvgjsLinearGradient3138)"><path xmlns="http://www.w3.org/2000/svg" d="M83.964,32.86L45.339,19.51c-0.328-0.113-0.683-0.112-1.009,0.001L6.032,32.861C5.423,33.073,5.011,33.643,5,34.289  c-0.01,0.645,0.383,1.229,0.985,1.46l15.553,5.999v15.533c0,0.87,0.852,1.422,1.599,1.786c0.99,0.443,2.593,0.973,5.188,1.642v8.326  c0,0.637,0.393,1.208,0.987,1.437c0.596,0.229,1.269,0.066,1.695-0.407l3.15-3.5l3.15,3.5c0.297,0.331,0.716,0.509,1.144,0.509  c0.185,0,0.372-0.033,0.552-0.102c0.595-0.229,0.987-0.802,0.986-1.438l-0.009-6.343c1.548,0.123,3.088,0.206,4.586,0.206  c6.329,0,11.955-1.043,15.56-1.918c7.47-1.813,7.47-2.464,7.47-3.449V42.028l16.414-6.277c0.604-0.231,0.999-0.815,0.989-1.462  C84.989,33.642,84.575,33.07,83.964,32.86z M24.616,56.321V42.934l3.709,1.432v13.149C26.636,57.041,25.371,56.605,24.616,56.321z   M35.301,63.234c-0.583-0.646-1.704-0.646-2.287,0l-1.612,1.791v-19.47l5.48,2.111l0.025,17.353L35.301,63.234z M64.521,56.499  c-2.622,0.941-10.68,3.32-19.953,3.32c-1.497,0-3.039-0.085-4.591-0.215l-0.016-10.751l4.322,1.667  c0.178,0.069,0.366,0.104,0.554,0.104c0.186,0,0.373-0.034,0.549-0.102l19.134-7.318V56.499z M44.839,47.438l-5.866-2.263  c-0.001,0-0.001,0-0.001,0l-0.386-0.149L11.003,34.387l33.835-11.794l34.124,11.794L44.839,47.438z"></path></g><g id="SvgjsG3135" featureKey="J3GnXt-0" transform="matrix(2.8376075903305122,0,0,2.8376075903305122,105.76512738761552,12.974354458016926)" fill="url(#SvgjsLinearGradient3141)"><path d="M1.14 7.76 l9.1 0 l0 2.78 l-6.1 0 l0 1.96 l4.9 0 l0 2.78 l-4.9 0 l0 4.72 l-3 0 l0 -12.24 z M16.04 17.32 c1.46 0 2.3 -0.86 2.3 -2.32 s-0.84 -2.32 -2.3 -2.32 s-2.3 0.86 -2.3 2.32 s0.84 2.32 2.3 2.32 z M16.04 20.1 c-3.08 0 -5.3 -2.04 -5.3 -5.1 c0 -3.16 2.3 -5.1 5.3 -5.1 c3.1 0 5.3 2.04 5.3 5.1 c0 3.14 -2.32 5.1 -5.3 5.1 z M25.759999999999998 15 l0 5 l-3 0 l0 -4.98 c0 -3.32 2.44 -5.12 5.52 -5.12 c0.1 0 0.24 0 0.38 0.02 s0.3 0.06 0.44 0.08 l0 2.9 c-0.1 -0.02 -0.22 -0.04 -0.36 -0.06 s-0.26 -0.04 -0.36 -0.04 c-0.5 0 -0.9 0.06 -1.24 0.16 c-0.56 0.2 -1.06 0.58 -1.24 1.18 c-0.1 0.26 -0.14 0.56 -0.14 0.86 z M46.4 14.6 l0 5.4 l-3 0 l0 -5.4 c0 -1.14 -0.54 -1.92 -1.74 -1.92 c-1.18 0 -1.76 0.8 -1.76 1.92 l0 5.4 l-3 0 l0 -5.4 c0 -1.14 -0.58 -1.92 -1.78 -1.92 c-1.18 0 -1.72 0.8 -1.72 1.92 l0 5.4 l-3 0 l0 -5.4 c0 -2.9 1.98 -4.7 4.76 -4.7 c1.42 0 2.52 0.66 3.24 1.88 c0.72 -1.22 1.82 -1.88 3.24 -1.88 c2.88 0 4.76 1.9 4.76 4.7 z M55.25999999999999 15 c-0.08 -1.46 -0.74 -2.32 -2.26 -2.32 c-0.42 0 -0.78 0.06 -1.08 0.18 c-0.92 0.42 -1.26 1.2 -1.26 2.16 c0 0.32 0.04 0.62 0.14 0.88 c0.3 1.04 1.2 1.42 2.2 1.42 c1.52 0 2.26 -0.82 2.26 -2.32 z M59.059999999999995 20 l-3 0 c-0.2 -0.5 -0.38 -1 -0.5 -1.52 c-0.68 1.12 -1.72 1.62 -3 1.62 c-2.86 0 -4.9 -2.4 -4.9 -5.14 c0 -3.16 2.36 -5.06 5.34 -5.06 c3.18 0 5.18 2.04 5.26 5.1 c0.02 0.26 0.02 0.56 0.02 0.92 c0 1.4 0.22 2.8 0.78 4.08 z M65.65999999999998 10.34 l0 2.78 l-2.8 0 l0 1.88 c0 1.54 1.02 2.32 2.5 2.32 c0.18 0 0.34 -0.02 0.48 -0.04 s0.26 -0.04 0.4 -0.06 l0 2.78 c-0.18 0.02 -0.32 0.06 -0.42 0.08 c-0.12 0.02 -0.32 0.02 -0.58 0.02 c-3.02 0 -5.38 -2.06 -5.38 -5.1 l0 -7.4 l3 0 l0 2.74 l2.8 0 z M72.09999999999998 17.32 c1.46 0 2.3 -0.86 2.3 -2.32 s-0.84 -2.32 -2.3 -2.32 s-2.3 0.86 -2.3 2.32 s0.84 2.32 2.3 2.32 z M72.09999999999998 20.1 c-3.08 0 -5.3 -2.04 -5.3 -5.1 c0 -3.16 2.3 -5.1 5.3 -5.1 c3.1 0 5.3 2.04 5.3 5.1 c0 3.14 -2.32 5.1 -5.3 5.1 z M83.53999999999998 17.32 c1.46 0 2.3 -0.86 2.3 -2.32 s-0.84 -2.32 -2.3 -2.32 s-2.3 0.86 -2.3 2.32 s0.84 2.32 2.3 2.32 z M83.53999999999998 20.1 c-3.08 0 -5.3 -2.04 -5.3 -5.1 c0 -3.16 2.3 -5.1 5.3 -5.1 c3.1 0 5.3 2.04 5.3 5.1 c0 3.14 -2.32 5.1 -5.3 5.1 z M90.15999999999998 6 l3 0 l0 14 l-3 0 l0 -14 z"></path></g>
			</g>
		</svg>
	